<?xml version="1.0" encoding="utf-8"?>
<!-- Generator: Adobe Illustrator 27.5.0, SVG Export Plug-In . SVG Version: 6.00 Build 0)  -->
<svg version="1.1" xmlns="http://www.w3.org/2000/svg" xmlns:xlink="http://www.w3.org/1999/xlink" x="0px" y="0px"
	 viewBox="0 0 500 500" style="enable-background:new 0 0 500 500;" xml:space="preserve">
<g id="BACKGROUND">
</g>
<g id="OBJECTS">
	<g>
		<g>
			<linearGradient id="SVGID_1_" gradientUnits="userSpaceOnUse" x1="239.1755" y1="122.3369" x2="131.8444" y2="231.0015">
				<stop  offset="0.3541" style="stop-color:#3CAC62"/>
				<stop  offset="0.9946" style="stop-color:#1F783E"/>
			</linearGradient>
			<path style="fill:url(#SVGID_1_);" d="M253.249,114.84c-1.16,9.3-3.11,18.37-5.77,27.15c-17.54,57.84-66.23,102.78-127.22,114.1
				c-0.65-5.16-0.99-10.41-0.99-15.74c0-17.84,3.71-34.81,10.42-50.19c19.37-44.49,63.74-75.59,115.36-75.59
				C247.799,114.57,250.539,114.65,253.249,114.84z"/>
		</g>
		
			<linearGradient id="SVGID_00000179639937960271519670000009234995166854253483_" gradientUnits="userSpaceOnUse" x1="121.3191" y1="158.2704" x2="369.7891" y2="158.2704">
			<stop  offset="0.0946" style="stop-color:#EB7A23"/>
			<stop  offset="0.8568" style="stop-color:#C93D1A"/>
		</linearGradient>
		<path style="fill:url(#SVGID_00000179639937960271519670000009234995166854253483_);" d="M369.789,135.03l-13.67-3.54l-3.33-0.85
			l-0.2-0.06v0.01c-2.06,7.1-4.52,14.03-7.35,20.76c-0.15,0.37-0.31,0.73-0.47,1.1c-8.61,20.13-20.57,38.49-35.17,54.38
			c-0.2,0.22-0.41,0.45-0.63,0.67c-8.38,9.03-17.61,17.26-27.58,24.55c-31.76,23.26-70.94,36.99-113.33,36.99
			c-2.34,0-4.66-0.04-6.98-0.13c-1.15-0.04-2.29-0.09-3.43-0.16c-0.63-0.03-1.27-0.06-1.9-0.11c-0.58-0.03-1.15-0.07-1.72-0.11
			c-0.43-0.03-0.86-0.06-1.28-0.1c-1.16-0.09-2.31-0.19-3.46-0.3c-1.04-0.1-2.08-0.21-3.12-0.33c-0.64-0.07-1.28-0.14-1.91-0.23
			c-0.85-0.09-1.69-0.2-2.53-0.32c-0.18-0.02-0.35-0.05-0.52-0.08c-0.94-0.12-1.87-0.26-2.8-0.41c-0.55-0.08-1.1-0.17-1.64-0.26
			c-0.18-0.03-0.36-0.06-0.54-0.09c-2.05-0.34-4.09-0.71-6.12-1.12c-2.81-0.56-5.6-1.18-8.36-1.87c-0.11-0.03-0.21-0.05-0.32-0.08
			c-0.04-0.01-0.07-0.02-0.11-0.03c0.12-0.02,0.24-0.04,0.36-0.07c1.2-0.22,2.39-0.46,3.58-0.71c1.19-0.25,2.38-0.51,3.56-0.78
			c1.47-0.33,2.93-0.69,4.38-1.07c0.89-0.23,1.77-0.46,2.66-0.71c1.16-0.32,2.32-0.65,3.48-1c2.31-0.69,4.6-1.43,6.87-2.22
			c1.13-0.39,2.26-0.79,3.39-1.21c1.12-0.41,2.24-0.84,3.36-1.28c2.15-0.85,4.29-1.74,6.4-2.67c1.22-0.54,2.44-1.09,3.64-1.66
			c1.03-0.48,2.05-0.97,3.06-1.48c1.07-0.52,2.13-1.06,3.19-1.62c1.05-0.54,2.1-1.1,3.15-1.68c7.27-3.97,14.24-8.46,20.84-13.43
			c0.95-0.71,1.89-1.43,2.83-2.17c5.61-4.4,10.95-9.15,15.98-14.22c0.84-0.83,1.67-1.69,2.49-2.55c0.01-0.01,0.01-0.02,0.02-0.02
			c1.63-1.72,3.24-3.47,4.8-5.26c0.2-0.22,0.4-0.44,0.58-0.67c5.67-6.54,10.87-13.52,15.52-20.89c0.25-0.39,0.49-0.79,0.74-1.18
			c10.77-17.38,18.55-36.91,22.55-57.93c0.05-0.22,0.09-0.44,0.12-0.66c0.5-2.64,0.93-5.3,1.3-7.98c0.05-0.33,0.09-0.66,0.13-1
			c0.33-2.44,0.61-4.89,0.83-7.37c0.06-0.62,0.11-1.24,0.16-1.87c0.02-0.32,0.05-0.63,0.07-0.95l-0.61-0.16l-2.99-0.76l-19.34-5
			l-2.77-0.72l22.39-13.44l2.16-1.29l63.02-37.81l0.53-0.32l22.77,43.28l0.43,0.82l11.77,22.38l1.17,2.22l5.24,9.97l0.35,0.66
			L369.789,135.03z"/>
		
			<linearGradient id="SVGID_00000086674883456175455560000002845864163017338803_" gradientUnits="userSpaceOnUse" x1="136.2091" y1="158.2704" x2="369.7891" y2="158.2704">
			<stop  offset="0.0946" style="stop-color:#EB7A23"/>
			<stop  offset="0.8568" style="stop-color:#C93D1A"/>
		</linearGradient>
		<path style="fill:url(#SVGID_00000086674883456175455560000002845864163017338803_);" d="M369.789,135.03l-13.67-3.54l-3.33-0.85
			l-0.2-0.06v0.01c-2.06,7.1-4.52,14.03-7.35,20.76c-0.15,0.37-0.31,0.73-0.47,1.1c-8.61,20.13-20.57,38.49-35.17,54.38
			c-0.2,0.22-0.41,0.45-0.63,0.67c-8.38,9.03-17.61,17.26-27.58,24.55c-31.76,23.26-70.94,36.99-113.33,36.99
			c-2.34,0-4.66-0.04-6.98-0.13c-8.44-0.3-16.74-1.14-24.87-2.5c47.22-5.5,89.53-26.46,121.93-57.55c0.23-0.23,0.48-0.45,0.71-0.69
			c11.59-11.21,21.88-23.73,30.67-37.31c0.26-0.4,0.51-0.81,0.77-1.22c8.46-13.25,15.47-27.52,20.84-42.54
			c0.07-0.22,0.15-0.44,0.22-0.66c2.95-8.35,5.38-16.94,7.28-25.72c0.08-0.34,0.15-0.68,0.22-1.03c3.38-16.04,4.94-32.74,4.45-49.85
			c-0.02-0.67-0.03-1.34-0.07-2.01l-62.24,39.07l-2.14,1.34l-20.43,12.84l-2.77-0.72l22.39-13.44l2.16-1.29l63.02-37.81l0.53-0.32
			l22.77,43.28l0.43,0.82l11.77,22.38l1.17,2.22l5.24,9.97l0.35,0.66L369.789,135.03z"/>
		
			<linearGradient id="SVGID_00000057832962799955209890000007847102762682636164_" gradientUnits="userSpaceOnUse" x1="286.5281" y1="100.9238" x2="203.6515" y2="218.8846">
			<stop  offset="0.0946" style="stop-color:#EB7A23"/>
			<stop  offset="0.8568" style="stop-color:#C93D1A"/>
		</linearGradient>
		<path style="fill:url(#SVGID_00000057832962799955209890000007847102762682636164_);" d="M318.349,99.65
			c-0.07,0.34-0.15,0.68-0.23,1.02c-1.99,8.76-4.5,17.33-7.53,25.65c-0.07,0.22-0.15,0.44-0.23,0.66
			c-5.51,14.97-12.66,29.17-21.25,42.34c-0.26,0.4-0.51,0.81-0.78,1.21c-8.92,13.49-19.33,25.91-31.03,37.01
			c-0.23,0.24-0.48,0.46-0.71,0.68c-32.7,30.78-75.21,51.33-122.48,56.37c-1.01,0.11-2.49,0.4-4,0.7c-2.81-0.56-5.6-1.18-8.36-1.87
			c-0.01-0.03-0.02-0.07-0.04-0.1c-0.01-0.03-0.02-0.05-0.03-0.08c1.2-0.22,2.39-0.46,3.58-0.71c1.19-0.25,2.38-0.51,3.56-0.78
			c1.47-0.33,2.93-0.69,4.38-1.07c0.89-0.23,1.77-0.46,2.66-0.71c1.16-0.32,2.32-0.65,3.48-1c2.31-0.69,4.6-1.43,6.87-2.22
			c1.13-0.39,2.26-0.79,3.39-1.21c1.12-0.41,2.24-0.84,3.36-1.28c2.15-0.85,4.29-1.74,6.4-2.67c1.22-0.54,2.44-1.09,3.64-1.66
			c1.03-0.48,2.05-0.97,3.06-1.48c1.07-0.52,2.13-1.06,3.19-1.62c1.05-0.54,2.1-1.1,3.15-1.68c7.27-3.97,14.24-8.46,20.84-13.43
			c0.95-0.71,1.89-1.43,2.83-2.17c5.61-4.4,10.95-9.15,15.98-14.22c0.84-0.83,1.67-1.69,2.49-2.55c0.01-0.01,0.01-0.02,0.02-0.02
			c1.63-1.72,3.24-3.47,4.8-5.26c0.2-0.22,0.4-0.44,0.58-0.67c5.67-6.54,10.87-13.52,15.52-20.89c0.25-0.39,0.49-0.79,0.74-1.18
			c10.77-17.38,18.55-36.91,22.55-57.93c0.05-0.22,0.09-0.44,0.12-0.66c0.5-2.64,0.93-5.3,1.3-7.98c0.05-0.33,0.09-0.66,0.13-1
			c0.33-2.44,0.61-4.89,0.83-7.37c0.06-0.62,0.11-1.24,0.16-1.87c0.02-0.32,0.05-0.63,0.07-0.95l-0.61-0.16
			c0.02-0.15,0.03-0.29,0.04-0.44l-3.59-0.96l-18.02-4.84l-1.27-0.34l20.55-12.64l2.16-1.32l62.6-38.46l0.01-0.01
			c0.03,0.67,0.04,1.34,0.05,2.01C323.609,66.95,321.879,83.64,318.349,99.65z"/>
		
			<linearGradient id="SVGID_00000152973069621943001050000015010711780383668885_" gradientUnits="userSpaceOnUse" x1="145.4241" y1="283.4975" x2="145.4241" y2="340.459">
			<stop  offset="0.1162" style="stop-color:#368ECE"/>
			<stop  offset="0.6514" style="stop-color:#2660B5"/>
		</linearGradient>
		<path style="fill:url(#SVGID_00000152973069621943001050000015010711780383668885_);" d="M167.729,276.34v63.21
			c-3.21-2.5-6.29-5.16-9.23-7.95c-9.92-9.41-18.3-20.41-24.73-32.6c-4.59-8.69-8.18-18-10.65-27.76
			c11.56,2.67,23.42,4.31,35.38,4.87C161.569,276.26,164.649,276.34,167.729,276.34z"/>
		
			<linearGradient id="SVGID_00000102530739199472823060000013148924201120621201_" gradientUnits="userSpaceOnUse" x1="211.8241" y1="306.3654" x2="211.8241" y2="352.1211">
			<stop  offset="0.1162" style="stop-color:#368ECE"/>
			<stop  offset="0.6514" style="stop-color:#2660B5"/>
		</linearGradient>
		<path style="fill:url(#SVGID_00000102530739199472823060000013148924201120621201_);" d="M235.269,264.77v100.97
			c-3.29-0.25-6.55-0.63-9.77-1.14c-13.16-2.05-25.65-6.14-37.12-11.95v-77.32c12.67-1.27,25.08-3.73,37.12-7.35
			C228.789,267,232.039,265.93,235.269,264.77z"/>
		
			<linearGradient id="SVGID_00000128448086743004745370000006859850412196999560_" gradientUnits="userSpaceOnUse" x1="279.3741" y1="281.2556" x2="279.3741" y2="340.6127">
			<stop  offset="0.1162" style="stop-color:#368ECE"/>
			<stop  offset="0.6514" style="stop-color:#2660B5"/>
		</linearGradient>
		<path style="fill:url(#SVGID_00000128448086743004745370000006859850412196999560_);" d="M302.819,223.89v128.2
			c-3.35,1.74-6.8,3.33-10.32,4.77c-11.45,4.67-23.74,7.69-36.57,8.78V256.02c11.49-5.65,22.5-12.47,32.91-20.4
			c1.23-0.94,2.45-1.89,3.66-2.86C296.039,229.92,299.489,226.97,302.819,223.89z"/>
		
			<linearGradient id="SVGID_00000008829057062760346910000003212618724547973002_" gradientUnits="userSpaceOnUse" x1="346.9141" y1="222.0681" x2="346.9141" y2="289.3401">
			<stop  offset="0.1162" style="stop-color:#368ECE"/>
			<stop  offset="0.6514" style="stop-color:#2660B5"/>
		</linearGradient>
		<path style="fill:url(#SVGID_00000008829057062760346910000003212618724547973002_);" d="M370.359,229.43v21.84
			c-1.26,14.63-5.02,28.55-10.86,41.32c-8.26,18.08-20.68,33.84-36.03,46.09V201.82c8.9-11.11,16.64-23.13,23-35.84l0.01-0.01
			c5.06,6.89,9.43,14.31,13.02,22.16C365.339,200.89,369.099,214.8,370.359,229.43z"/>
		
			<linearGradient id="SVGID_00000046318953968894169630000001091488238807600811_" gradientUnits="userSpaceOnUse" x1="215.3419" y1="93.8147" x2="227.8229" y2="205.0736">
			<stop  offset="0.0946" style="stop-color:#EB7A23"/>
			<stop  offset="1" style="stop-color:#FE932B"/>
		</linearGradient>
		<path style="fill:url(#SVGID_00000046318953968894169630000001091488238807600811_);" d="M323.249,49.83
			c0.14,17.12-1.75,33.78-5.46,49.75c-0.07,0.35-0.15,0.69-0.24,1.03c-2.07,8.74-4.68,17.27-7.79,25.56
			c-0.08,0.22-0.16,0.44-0.24,0.66c-5.67,14.91-12.97,29.03-21.69,42.11c-0.27,0.41-0.53,0.81-0.8,1.2
			c-9.06,13.4-19.6,25.71-31.41,36.69c-0.24,0.23-0.49,0.45-0.73,0.67c-35.36,32.59-81.84,53.33-133.18,55.82
			c-0.09,0.01-0.19,0.02-0.28,0.02c-0.04-0.01-0.07-0.02-0.11-0.03c0.12-0.02,0.24-0.04,0.36-0.07c1.2-0.22,2.39-0.45,3.58-0.71
			c1.19-0.24,2.38-0.5,3.56-0.78c1.47-0.33,2.93-0.69,4.38-1.07c0.89-0.23,1.77-0.46,2.66-0.71c1.16-0.32,2.32-0.65,3.48-1
			c2.31-0.69,4.6-1.43,6.87-2.22c1.13-0.39,2.26-0.79,3.39-1.21c1.12-0.41,2.24-0.84,3.36-1.28c2.15-0.85,4.29-1.74,6.4-2.67
			c1.22-0.54,2.44-1.09,3.64-1.66c1.03-0.48,2.05-0.97,3.06-1.48c1.07-0.52,2.13-1.06,3.19-1.62c1.05-0.54,2.1-1.1,3.15-1.68
			c7.27-3.97,14.24-8.46,20.84-13.43c0.95-0.71,1.89-1.43,2.83-2.17c5.61-4.4,10.95-9.15,15.98-14.22c0.84-0.83,1.67-1.69,2.49-2.55
			c0.01-0.01,0.01-0.02,0.02-0.02c1.63-1.72,3.24-3.47,4.8-5.26c0.2-0.22,0.4-0.44,0.58-0.67c5.67-6.54,10.87-13.52,15.52-20.89
			c0.25-0.39,0.49-0.79,0.74-1.18c10.77-17.38,18.55-36.91,22.55-57.93c0.05-0.22,0.09-0.44,0.12-0.66c0.5-2.64,0.93-5.3,1.3-7.98
			c0.05-0.33,0.09-0.66,0.13-1c0.33-2.44,0.61-4.89,0.83-7.37c0.06-0.62,0.11-1.24,0.16-1.87c0.02-0.32,0.05-0.63,0.07-0.95
			l-0.61-0.16l-2.99-0.76l-19.34-5l-2.77-0.72l22.39-13.44l2.16-1.29l63.02-37.81c0,0.01,0,0.01,0,0.02
			C323.239,48.5,323.239,49.17,323.249,49.83z"/>
		
			<linearGradient id="SVGID_00000096048011225563906040000013366341375919006098_" gradientUnits="userSpaceOnUse" x1="305.0043" y1="48.1133" x2="283.671" y2="87.4467">
			<stop  offset="0" style="stop-color:#FFCFAA"/>
			<stop  offset="0.9946" style="stop-color:#FE932B;stop-opacity:0"/>
		</linearGradient>
		<path style="fill:url(#SVGID_00000096048011225563906040000013366341375919006098_);" d="M323.249,49.83
			c0.14,17.12-1.75,33.78-5.46,49.75c-0.07,0.35-0.15,0.69-0.24,1.03l-57.38,17.58c0.05-0.33,0.09-0.66,0.13-1
			c0.33-2.44,0.61-4.89,0.83-7.37c0.06-0.62,0.11-1.24,0.16-1.87c0.02-0.32,0.05-0.63,0.07-0.95l-0.61-0.16l-2.99-0.76l-19.34-5
			l-2.77-0.72l22.39-13.44l2.16-1.29l63.02-37.81c0,0.01,0,0.01,0,0.02C323.239,48.5,323.239,49.17,323.249,49.83z"/>
		
			<linearGradient id="SVGID_00000019660669361406288210000006026291593050493316_" gradientUnits="userSpaceOnUse" x1="275.1331" y1="149.1836" x2="149.438" y2="273.8649">
			<stop  offset="0" style="stop-color:#FFCFAA"/>
			<stop  offset="0.9946" style="stop-color:#FE932B;stop-opacity:0"/>
		</linearGradient>
		<path style="opacity:0.43;fill:url(#SVGID_00000019660669361406288210000006026291593050493316_);" d="M287.829,168.94
			c-0.27,0.41-0.53,0.81-0.8,1.2c-9.06,13.4-19.6,25.71-31.41,36.69c-0.24,0.23-0.49,0.45-0.73,0.67
			c-35.42,32.65-82.01,53.41-133.46,55.84c-0.04-0.01-0.07-0.02-0.11-0.03c38.5-7.08,72.91-27.13,98.04-55.81
			c0.2-0.22,0.4-0.44,0.58-0.67c5.67-6.54,10.87-13.52,15.52-20.89c0.25-0.39,0.49-0.79,0.74-1.18L287.829,168.94z"/>
		<g style="opacity:0.56;">
			
				<linearGradient id="SVGID_00000016066503733499704160000004189244453451137176_" gradientUnits="userSpaceOnUse" x1="225.036" y1="208.7345" x2="144.4326" y2="84.5017">
				<stop  offset="0" style="stop-color:#B5FFCE"/>
				<stop  offset="0.9838" style="stop-color:#1F783E;stop-opacity:0"/>
			</linearGradient>
			<path style="fill:url(#SVGID_00000016066503733499704160000004189244453451137176_);" d="M251.77,117.059
				c-1.16,9.3-3.11,18.37-5.77,27.15c-22.22,30.15-57.98,49.72-98.31,49.72c-6.63,0-13.14-0.53-19.48-1.55
				c19.37-44.49,63.74-75.59,115.36-75.59C246.32,116.789,249.06,116.869,251.77,117.059z"/>
		</g>
		<g>
			
				<text transform="matrix(1 0 0 1 123.033 403.7589)" style="fill:#2456A8; font-family:'Montserrat-Black'; font-size:34.0695px;">ACCOUNTING</text>
		</g>
		
			<linearGradient id="SVGID_00000065786025568737584590000006402148185963147148_" gradientUnits="userSpaceOnUse" x1="163.1141" y1="288.8782" x2="163.1141" y2="331.9447">
			<stop  offset="0" style="stop-color:#2456A8"/>
			<stop  offset="1" style="stop-color:#202A96"/>
		</linearGradient>
		<path style="fill:url(#SVGID_00000065786025568737584590000006402148185963147148_);" d="M167.729,276.34v63.21
			c-3.21-2.5-6.29-5.16-9.23-7.95v-55.49C161.569,276.26,164.649,276.34,167.729,276.34z"/>
		
			<linearGradient id="SVGID_00000088815716735148228850000008563104907620700825_" gradientUnits="userSpaceOnUse" x1="123.1191" y1="285.1204" x2="167.7291" y2="285.1204">
			<stop  offset="0" style="stop-color:#65AADE"/>
			<stop  offset="1" style="stop-color:#C5E2FF"/>
		</linearGradient>
		<path style="fill:url(#SVGID_00000088815716735148228850000008563104907620700825_);" d="M167.729,276.34v0.32L133.769,299
			c-4.59-8.69-8.18-18-10.65-27.76c11.56,2.67,23.42,4.31,35.38,4.87C161.569,276.26,164.649,276.34,167.729,276.34z"/>
		
			<linearGradient id="SVGID_00000110447510289496007430000004999137123389495455_" gradientUnits="userSpaceOnUse" x1="188.3791" y1="289.8953" x2="235.2691" y2="289.8953">
			<stop  offset="0" style="stop-color:#65AADE"/>
			<stop  offset="1" style="stop-color:#C5E2FF"/>
		</linearGradient>
		<path style="fill:url(#SVGID_00000110447510289496007430000004999137123389495455_);" d="M235.269,264.77v0.54l-46.89,49.71
			v-39.69c12.67-1.27,25.08-3.73,37.12-7.35C228.789,267,232.039,265.93,235.269,264.77z"/>
		
			<linearGradient id="SVGID_00000163043102686802410870000014333857533335004811_" gradientUnits="userSpaceOnUse" x1="255.9291" y1="267.5754" x2="302.8191" y2="267.5754">
			<stop  offset="0" style="stop-color:#65AADE"/>
			<stop  offset="1" style="stop-color:#C5E2FF"/>
		</linearGradient>
		<path style="fill:url(#SVGID_00000163043102686802410870000014333857533335004811_);" d="M302.819,223.89v1.23l-46.89,86.14
			v-55.24c11.49-5.65,22.5-12.47,32.91-20.4c1.23-0.94,2.45-1.89,3.66-2.86C296.039,229.92,299.489,226.97,302.819,223.89z"/>
		
			<linearGradient id="SVGID_00000105406099063286014130000001474008262355002257_" gradientUnits="userSpaceOnUse" x1="323.4691" y1="215.9004" x2="346.4691" y2="215.9004">
			<stop  offset="0" style="stop-color:#65AADE"/>
			<stop  offset="1" style="stop-color:#C5E2FF"/>
		</linearGradient>
		<path style="fill:url(#SVGID_00000105406099063286014130000001474008262355002257_);" d="M346.469,165.98l-23,99.84v-64
			C332.369,190.71,340.109,178.69,346.469,165.98z"/>
		
			<linearGradient id="SVGID_00000160173955419792988970000010141161755356078241_" gradientUnits="userSpaceOnUse" x1="230.3841" y1="285.7395" x2="230.3841" y2="346.2988">
			<stop  offset="0" style="stop-color:#2456A8"/>
			<stop  offset="1" style="stop-color:#202A96"/>
		</linearGradient>
		<path style="fill:url(#SVGID_00000160173955419792988970000010141161755356078241_);" d="M235.269,264.77v100.97
			c-3.29-0.25-6.55-0.63-9.77-1.14v-96.62C228.789,267,232.039,265.93,235.269,264.77z"/>
		
			<linearGradient id="SVGID_00000126303166472411886190000004685954175716819373_" gradientUnits="userSpaceOnUse" x1="297.6591" y1="264.6651" x2="297.6591" y2="325.6874">
			<stop  offset="0" style="stop-color:#2456A8"/>
			<stop  offset="1" style="stop-color:#202A96"/>
		</linearGradient>
		<path style="fill:url(#SVGID_00000126303166472411886190000004685954175716819373_);" d="M302.819,223.89v128.2
			c-3.35,1.74-6.8,3.33-10.32,4.77v-124.1C296.039,229.92,299.489,226.97,302.819,223.89z"/>
		
			<linearGradient id="SVGID_00000071555349687384320710000016053997040353175210_" gradientUnits="userSpaceOnUse" x1="364.9291" y1="218.9294" x2="364.9291" y2="257.5143">
			<stop  offset="0" style="stop-color:#2456A8"/>
			<stop  offset="1" style="stop-color:#202A96"/>
		</linearGradient>
		<path style="fill:url(#SVGID_00000071555349687384320710000016053997040353175210_);" d="M370.359,229.43v21.84
			c-1.26,14.63-5.02,28.55-10.86,41.32V188.13C365.339,200.89,369.099,214.8,370.359,229.43z"/>
		
			<text transform="matrix(1 0 0 1 132.1211 422.3724)" style="fill:#4080CC; font-family:'Montserrat-SemiBold'; font-size:19.4971px;">Your Slogan Goes Here</text>
	</g>
</g>
</svg>
